<?xml version="1.0" encoding="utf-8"?>
<!-- Generator: Adobe Illustrator 27.5.0, SVG Export Plug-In . SVG Version: 6.00 Build 0)  -->
<svg version="1.1" xmlns="http://www.w3.org/2000/svg" xmlns:xlink="http://www.w3.org/1999/xlink" x="0px" y="0px"
	 viewBox="0 0 500 500" style="enable-background:new 0 0 500 500;" xml:space="preserve">
<g id="BACKGROUND">
</g>
<g id="OBJECTS">
	<path style="fill:#FFF7D4;" d="M85.372,130.28C172.165,2.313,339.835-4.018,431.577,159.15
		c91.743,163.17,61.162,308.642-175.839,299.252C18.736,449.01-37.207,311.01,85.372,130.28z"/>
	<path style="fill:#FF7EC3;" d="M130.545,500.055c-11.599-20.499-32.04-55.695-36.949-58.069
		c-6.951-3.36-37.606,22.247-38.95,57.877c-0.002,0.066,0,0.128-0.003,0.192H130.545z"/>
	<path style="fill:#F964BA;" d="M109.926,500.055h15.058c-11.727-19.677-30.438-50.987-31.387-52.021
		c-1.385-1.514-10.715,4.032-8.193,23.192C86.632,480.57,98.296,491.408,109.926,500.055z"/>
	<path style="fill:#5C0000;" d="M207.395,500.055h149.703c26.753-17.563,44.348-43.25,50.22-65.34
		c20.487-77.074-29.151-71.662-29.151-71.662s16.397-14.576,7.895-25.507c-8.502-10.931-22.47,2.431-33.402,12.146
		c-10.931,9.719-32.795,15.184-51.62-5.465c-18.827-20.648,3.643-82.594,3.643-82.594c-72.876-52.837-134.421-33.095-134.421-33.095
		s-7.34,43.04-18.274,66.996c-10.934,23.954-40.429,43.834-43.465,85.737C105.726,419.825,128.126,463.518,207.395,500.055z"/>
	<g>
		<path d="M234.477,352.881c0,0,1.164,1.861,2.977,4.598c0.9,1.372,1.976,2.956,3.186,4.611c0.602,0.83,1.236,1.677,1.903,2.521
			c0.649,0.857,1.364,1.683,2.054,2.528c0.711,0.827,1.405,1.671,2.145,2.448c0.714,0.803,1.472,1.538,2.195,2.26
			c0.742,0.7,1.47,1.369,2.188,1.968c0.732,0.581,1.403,1.161,2.085,1.608c0.664,0.474,1.273,0.907,1.849,1.236
			c0.565,0.345,1.051,0.662,1.485,0.856c0.852,0.426,1.338,0.669,1.338,0.669l0.015,0.007c0.081,0.041,0.114,0.14,0.073,0.222
			c-0.04,0.079-0.135,0.112-0.215,0.076c0,0-0.504-0.227-1.386-0.624c-0.452-0.181-0.956-0.481-1.546-0.809
			c-0.6-0.312-1.239-0.723-1.917-1.201c-0.701-0.447-1.389-1.024-2.141-1.604c-0.737-0.598-1.484-1.266-2.246-1.964
			c-0.743-0.72-1.52-1.455-2.253-2.256c-0.76-0.776-1.472-1.617-2.202-2.443c-2.809-3.398-5.294-7.037-7.055-9.822
			c-0.89-1.387-1.569-2.583-2.059-3.408c-0.481-0.83-0.756-1.305-0.756-1.305c-0.046-0.079-0.02-0.18,0.06-0.227
			C234.329,352.782,234.429,352.807,234.477,352.881z"/>
	</g>
	<g>
		<path d="M160.34,312.185c0,0-1.434,1.662-3.515,4.2c-1.046,1.265-2.243,2.76-3.468,4.403c-0.616,0.82-1.237,1.677-1.848,2.563
			c-0.628,0.873-1.205,1.8-1.81,2.708c-0.581,0.923-1.182,1.834-1.707,2.77c-0.557,0.919-1.036,1.859-1.512,2.764
			c-0.45,0.915-0.874,1.809-1.235,2.671c-0.339,0.87-0.696,1.683-0.923,2.466c-0.256,0.774-0.491,1.484-0.636,2.131
			c-0.163,0.642-0.323,1.199-0.38,1.672c-0.156,0.939-0.246,1.476-0.246,1.476l-0.002,0.016c-0.015,0.09-0.1,0.15-0.189,0.136
			c-0.087-0.015-0.147-0.096-0.136-0.183c0,0,0.068-0.549,0.188-1.509c0.039-0.484,0.178-1.055,0.317-1.715
			c0.121-0.665,0.325-1.397,0.582-2.185c0.221-0.802,0.57-1.63,0.902-2.52c0.354-0.88,0.771-1.791,1.214-2.725
			c0.469-0.922,0.941-1.882,1.491-2.818c0.518-0.955,1.112-1.883,1.686-2.824c2.419-3.686,5.164-7.133,7.306-9.637
			c1.063-1.259,2.005-2.261,2.649-2.972c0.652-0.704,1.024-1.107,1.024-1.107c0.062-0.067,0.166-0.072,0.233-0.011
			C160.392,312.016,160.397,312.118,160.34,312.185z"/>
	</g>
	<path style="fill:#440000;" d="M378.166,363.053c0,0,16.397-14.576,7.895-25.507c-8.502-10.931-22.47,2.431-33.402,12.146
		c-2.854,2.537-6.457,4.778-10.554,6.347c-0.142,40.171,18.544,99.283-30.907,106.348c-53.812,7.534-88.251-50.583-122.69-87.175
		c-16.009-18.535-38.613-39.047-63.683-39.854c-8.08,12.394-14.925,26.877-16.304,45.914
		c-2.794,38.553,19.606,82.246,98.875,118.783h149.703c26.753-17.563,44.348-43.25,50.22-65.34
		C427.805,357.641,378.166,363.053,378.166,363.053z"/>
	<path style="fill:#C45A02;" d="M354.895,418.249c0,0,5.385-30.566,5.837-38.059c0.452-7.488,1.223-17.814,1.971-18.421
		c0.748-0.607,15.021-1.798,12.453,10.754c-2.567,12.552-7.05,42.285-7.05,42.285L354.895,418.249z"/>
	<path style="fill:#C45A02;" d="M361.8,417.296c0,0,10.335-28.82,11.996-36.021c1.659-7.199,4.098-17.101,4.943-17.571
		c0.85-0.471,15.638-0.762,10.801,13.662c-4.02,11.988-12.224,40.883-12.224,40.883L361.8,417.296z"/>
	<path style="fill:#C45A02;" d="M378.798,461.235c0,0,14.461,3.715,15.512-11.807c1.05-15.522-43.162-26.251-43.162-26.251
		S348.398,450.101,378.798,461.235z"/>
	<path style="fill:#DC7912;" d="M344.492,447.266c0,0-7.024-25.836-1.547-28.669c5.48-2.834,5.819-2.911,15.49-5.339
		c9.673-2.43,18.854-5.67,19.931-5.063c1.073,0.607,6.551,10.654-1.05,19.498c-7.602,8.844-18.623,2.129-19.025,4.152
		c-0.399,2.023,11.976,6.107,16.671,16.433c4.695,10.324,0.914,12.956,0.914,12.956L344.492,447.266z"/>
	<path style="fill:#DC7912;" d="M374.426,414.561c0,0,26.183,7.808,27.364,11.449c1.179,3.645-6.313,23.484-8.821,24.699
		c-2.507,1.215-23.114-1.478-25.168-8.309C365.745,435.57,370.63,413.087,374.426,414.561z"/>
	<g>
		<path d="M377.438,427.806c0,0-0.115,0.129-0.332,0.373c-0.207,0.248-0.54,0.597-0.994,1.024c-0.898,0.834-2.325,1.954-4.343,2.669
			c-2.002,0.731-4.53,0.997-7.153,0.713c-1.314-0.123-2.653-0.379-3.993-0.619c-0.642-0.102-1.402-0.258-1.882-0.141
			c-0.107,0.011-0.091,0.113-0.107,0.032c0.006,0.069-0.015,0.217,0.021,0.205c0.015,0.012,0.014,0.042,0.063,0.107
			c0.139,0.225,0.384,0.454,0.637,0.666c1.034,0.852,2.233,1.59,3.362,2.358c1.14,0.762,2.252,1.535,3.299,2.324
			c2.1,1.572,3.918,3.237,5.31,4.816c1.401,1.575,2.34,3.074,2.931,4.147c0.294,0.539,0.51,0.97,0.643,1.271
			c0.139,0.297,0.213,0.456,0.213,0.456c0.038,0.083,0.003,0.181-0.08,0.22c-0.081,0.037-0.177,0.004-0.217-0.075l-0.004-0.008
			c0,0-0.078-0.153-0.224-0.442c-0.14-0.292-0.365-0.708-0.671-1.227c-0.605-1.042-1.599-2.457-2.984-3.989
			c-1.384-1.534-3.189-3.152-5.279-4.683c-1.044-0.768-2.152-1.522-3.297-2.268c-1.139-0.76-2.327-1.465-3.452-2.368
			c-0.279-0.23-0.553-0.482-0.782-0.848c-0.055-0.075-0.114-0.209-0.149-0.363c-0.047-0.172-0.017-0.206-0.024-0.308
			c0.027-0.189,0.053-0.179,0.086-0.275c0.027-0.075,0.078-0.132,0.138-0.185c0.116-0.125,0.236-0.165,0.357-0.211
			c0.463-0.127,0.811-0.058,1.173-0.027c0.357,0.042,0.698,0.106,1.037,0.168c1.352,0.258,2.658,0.522,3.94,0.657
			c2.557,0.306,4.986,0.073,6.914-0.605c0.962-0.34,1.809-0.75,2.519-1.183c0.706-0.44,1.285-0.886,1.735-1.277
			c0.445-0.393,0.785-0.723,1.004-0.969c0.225-0.236,0.345-0.362,0.345-0.362c0.063-0.065,0.167-0.068,0.233-0.005
			C377.493,427.638,377.497,427.74,377.438,427.806z"/>
	</g>
	<path style="fill:#C45A02;" d="M173.075,275.879c0,0-3.05-22.843-14.228-23.115c-11.179-0.271-17.276,25.835-11.179,39.703
		c6.098,13.87,22.866,13.266,24.391,7.313C173.582,293.828,173.075,275.879,173.075,275.879z"/>
	<g>
		<path d="M158.552,258.317l1.502,1.247c0.511,0.399,0.968,0.88,1.455,1.317c0.493,0.436,0.938,0.917,1.385,1.398l0.67,0.722
			l0.612,0.772l0.609,0.776l0.548,0.822c0.384,0.537,0.7,1.115,1.011,1.698c0.34,0.567,0.572,1.189,0.844,1.79
			c0.275,0.602,0.44,1.244,0.666,1.865c0.177,0.634,0.333,1.276,0.481,1.919c0.104,0.65,0.245,1.295,0.317,1.949
			c0.061,0.653,0.168,1.306,0.19,1.961c0.034,0.654,0.092,1.31,0.092,1.964c0.078,2.619-0.066,5.228-0.191,7.827
			c-0.008,0.18-0.161,0.317-0.34,0.309l-0.017-0.001l-0.022-0.002c-0.424-0.045-0.847-0.142-1.272-0.145
			c-0.426-0.036-0.85-0.024-1.273,0.002c-0.418,0.045-0.84,0.092-1.24,0.213c-0.206,0.044-0.403,0.111-0.594,0.192
			c-0.198,0.068-0.387,0.153-0.565,0.259c-0.371,0.184-0.704,0.435-0.999,0.72c-0.304,0.278-0.542,0.616-0.755,0.966
			c-0.184,0.366-0.348,0.747-0.424,1.153c-0.101,0.401-0.104,0.819-0.086,1.23c0.037,0.411,0.118,0.82,0.269,1.206
			c0.14,0.39,0.348,0.753,0.596,1.082c0.246,0.334,0.552,0.616,0.88,0.868c0.34,0.237,0.704,0.445,1.098,0.586
			c0.392,0.148,0.805,0.243,1.225,0.291c0.421,0.056,0.848,0.044,1.275,0.025c0.425-0.051,0.852-0.1,1.27-0.21
			c0.425-0.076,0.828-0.244,1.244-0.364l0.021-0.006c0.087-0.025,0.179,0.024,0.204,0.112c0.024,0.085-0.023,0.175-0.108,0.202
			c-0.424,0.137-0.834,0.319-1.273,0.411c-0.431,0.126-0.876,0.19-1.321,0.255c-0.45,0.032-0.903,0.057-1.357,0.01
			c-0.452-0.039-0.905-0.129-1.339-0.28c-0.438-0.144-0.849-0.361-1.235-0.618c-0.376-0.271-0.719-0.592-1.001-0.962
			c-0.283-0.368-0.52-0.774-0.682-1.211c-0.173-0.432-0.27-0.891-0.315-1.353c-0.027-0.463-0.025-0.935,0.083-1.39
			c0.083-0.461,0.262-0.898,0.47-1.316c0.237-0.402,0.508-0.79,0.85-1.111c0.332-0.326,0.71-0.614,1.122-0.825
			c0.201-0.12,0.411-0.217,0.628-0.295c0.213-0.093,0.431-0.169,0.655-0.22c0.441-0.136,0.897-0.192,1.35-0.244
			c0.455-0.034,0.909-0.05,1.361-0.017c0.455,0.001,0.896,0.097,1.346,0.141l-0.378,0.306l0.134-3.896
			c0.023-1.297,0.055-2.594,0.03-3.886c0.005-0.648-0.046-1.291-0.072-1.936c-0.016-0.647-0.115-1.283-0.168-1.926
			c-0.064-0.641-0.196-1.27-0.291-1.906c-0.138-0.626-0.283-1.252-0.45-1.871c-0.213-0.603-0.367-1.23-0.628-1.816
			c-0.259-0.586-0.477-1.191-0.803-1.746c-0.297-0.568-0.598-1.136-0.969-1.662l-0.526-0.808l-0.589-0.765
			c-0.385-0.517-0.794-1.015-1.233-1.488c-0.426-0.484-0.852-0.971-1.323-1.412c-0.469-0.444-0.897-0.925-1.401-1.342l-1.467-1.289
			c-0.068-0.06-0.075-0.164-0.015-0.232C158.381,258.267,158.483,258.259,158.552,258.317z"/>
	</g>
	<path style="fill:#FFEE49;" d="M160.806,298.655c2.607,0.607,3.822,22.167-2.555,20.953
		C151.875,318.392,158.199,298.048,160.806,298.655z"/>
	<path style="fill:#C45A02;" d="M284.737,294.551c0,0,9.263-21.101,20.078-18.263c10.816,2.84,9.435,29.612-0.268,41.246
		c-9.704,11.634-25.647,6.405-25.462,0.265C279.273,311.656,284.737,294.551,284.737,294.551z"/>
	<g>
		<path d="M305.963,281.881l-1.767,0.831c-0.6,0.262-1.145,0.603-1.719,0.901c-0.574,0.293-1.118,0.642-1.662,0.989
			c-0.554,0.333-1.084,0.698-1.598,1.088l-0.778,0.571l-0.729,0.629c-0.502,0.404-0.949,0.865-1.392,1.329
			c-0.468,0.442-0.845,0.964-1.256,1.455c-0.414,0.489-0.735,1.05-1.108,1.57c-0.332,0.549-0.645,1.11-0.951,1.674
			c-0.268,0.585-0.569,1.152-0.809,1.751c-0.229,0.602-0.501,1.186-0.695,1.803c-0.205,0.613-0.432,1.217-0.607,1.841
			c-0.382,1.235-0.711,2.489-1.049,3.742l-0.951,3.78l-0.279-0.397c0.444,0.081,0.895,0.112,1.332,0.237
			c0.443,0.094,0.876,0.234,1.304,0.393c0.42,0.176,0.843,0.356,1.228,0.609c0.202,0.111,0.39,0.245,0.568,0.393
			c0.189,0.136,0.363,0.287,0.523,0.458c0.338,0.317,0.62,0.698,0.85,1.104c0.239,0.402,0.392,0.85,0.508,1.303
			c0.084,0.46,0.136,0.929,0.087,1.393c-0.021,0.468-0.15,0.921-0.305,1.358c-0.172,0.432-0.392,0.846-0.679,1.213
			c-0.276,0.374-0.616,0.699-0.99,0.974c-0.373,0.278-0.792,0.49-1.228,0.647c-0.442,0.139-0.898,0.234-1.358,0.251
			c-0.459,0.024-0.919-0.016-1.364-0.104c-0.449-0.08-0.878-0.229-1.301-0.386c-0.411-0.185-0.82-0.371-1.199-0.611
			c-0.397-0.21-0.739-0.499-1.109-0.748c-0.075-0.051-0.095-0.153-0.044-0.228c0.05-0.074,0.149-0.095,0.224-0.047l0.02,0.012
			c0.365,0.23,0.706,0.504,1.094,0.695c0.371,0.222,0.768,0.388,1.162,0.554c0.405,0.136,0.812,0.266,1.232,0.329
			c0.417,0.07,0.841,0.095,1.258,0.06c0.418-0.025,0.825-0.124,1.217-0.258c0.386-0.151,0.759-0.338,1.087-0.59
			c0.33-0.248,0.631-0.539,0.873-0.875c0.252-0.328,0.444-0.699,0.594-1.083c0.132-0.391,0.244-0.793,0.259-1.206
			c0.04-0.411-0.012-0.823-0.088-1.226c-0.107-0.396-0.242-0.786-0.457-1.138c-0.205-0.354-0.455-0.689-0.76-0.969
			c-0.143-0.15-0.301-0.285-0.472-0.404c-0.161-0.132-0.332-0.251-0.518-0.351c-0.35-0.227-0.743-0.389-1.133-0.548
			c-0.398-0.143-0.803-0.271-1.222-0.355c-0.41-0.114-0.843-0.139-1.263-0.213l-0.021-0.004c-0.177-0.031-0.294-0.2-0.263-0.377
			l0.004-0.018c0.6-2.533,1.184-5.079,1.985-7.574c0.182-0.629,0.419-1.242,0.633-1.861c0.203-0.624,0.487-1.221,0.728-1.832
			c0.25-0.607,0.564-1.189,0.845-1.785c0.32-0.575,0.647-1.149,0.994-1.71c0.389-0.534,0.726-1.107,1.156-1.608
			c0.428-0.503,0.823-1.035,1.308-1.486c0.46-0.473,0.925-0.941,1.442-1.351l0.755-0.638l0.801-0.577l0.803-0.572l0.844-0.508
			c0.561-0.339,1.124-0.677,1.718-0.959c0.589-0.285,1.161-0.62,1.764-0.863l1.789-0.781c0.083-0.036,0.181,0.001,0.218,0.085
			C306.08,281.748,306.043,281.843,305.963,281.881z"/>
	</g>
	<path style="fill:#FFEE49;" d="M290.207,319.836c-2.672-0.14-9.816,20.238-3.354,20.839
		C293.316,341.277,292.883,319.975,290.207,319.836z"/>
	<path style="fill:#FFC0E1;" d="M179.854,197.448c0,0,15.171-34.406,16.024-41.409c0.855-7.003-2.009-60.666,23.137-67.051
		c25.147-6.384,36.917,21.523,42.864,19.406c5.943-2.117,17.167-37.14,51.821-18.078c34.654,19.063,4.378,41.304,9.372,44.728
		c4.997,3.424,44.498-10.393,50.538,36.554c6.042,46.947-48.874,36.996-50.815,40.594c-1.943,3.599-11.023,24.588-11.023,24.588
		L179.854,197.448z"/>
	<path style="opacity:0.4;fill:#FF7EC3;" d="M252.928,192.623c-28.448-15.052-46.603-40.024-54.761-69.278
		c-2.338,14.732-1.871,29.276-2.288,32.695c-0.854,7.002-16.024,41.409-16.024,41.409l131.919,39.333c0,0,9.08-20.99,11.023-24.588
		c1.537-2.853,36.357,2.804,47.721-18.109C331.073,204.761,291.841,213.212,252.928,192.623z"/>
	<path style="fill:#DC7912;" d="M186.458,368.317c0,0,5.263-17.006,3.644-18.625c-1.619-1.618-20.513-7.892-21.863-23.076
		c-1.619-18.22,7.287-62.757,7.287-62.757s15.791-10.932,21.864-20.648c6.073-9.718,10.12-19.905,10.12-19.905l85.024,22.334
		c0,0,3.238,25.105-3.643,61.542c-6.882,36.438-11.741,53.443-26.316,53.443c-14.575,0-42.513-4.454-45.346-0.811
		c-2.835,3.643-6.074,21.458-6.074,21.458S184.839,366.291,186.458,368.317z"/>
	<path style="fill:#C45A02;" d="M186.458,368.317c0,0,0.019-0.064,0.056-0.18C186.378,368.125,186.346,368.177,186.458,368.317z"/>
	<path style="fill:#C45A02;" d="M292.535,245.639l-85.024-22.334c0,0-3.136,7.889-8.025,16.403
		c32.875-2.36,66.546,5.865,93.793,24.671C293.424,252.555,292.535,245.639,292.535,245.639z"/>
	<path style="fill:#C45A02;" d="M186.514,368.137c1.827,0.148,24.641,13.135,24.641,13.135s3.239-17.815,6.074-21.458
		c0.238-0.308,0.67-0.555,1.245-0.754c-9.51-2.556-18.908-5.561-28.191-9.027C191.171,352.711,187.038,366.418,186.514,368.137z"/>
	<path style="opacity:0.2;fill:#FF433F;" d="M173.075,287.163c3.63-9.028,13.218-16.131,27.421-9.738
		c14.204,6.391,7.812,21.661,4.615,26.631c-3.195,4.971-12.354,10.869-24.212,4.394
		C172.087,303.638,170.105,294.551,173.075,287.163z"/>
	<path style="opacity:0.2;fill:#FF433F;" d="M251.805,297.805c3.631-9.031,13.219-16.133,27.423-9.74
		c14.203,6.391,7.811,21.661,4.615,26.631c-3.195,4.972-12.353,10.87-24.213,4.394C250.817,314.279,248.836,305.193,251.805,297.805
		z"/>
	<path style="fill:#FFFFFF;" d="M195.905,274.213c3.104-7.723,11.303-13.795,23.448-8.33c12.147,5.466,6.682,18.522,3.948,22.775
		c-2.732,4.25-10.563,9.293-20.707,3.756C195.061,288.301,193.365,280.532,195.905,274.213z"/>
	<g>
		<path d="M195.254,273.917c0,0,0.066-0.183,0.19-0.523c0.146-0.345,0.249-0.833,0.611-1.488c0.166-0.323,0.341-0.695,0.556-1.076
			c0.23-0.365,0.479-0.761,0.746-1.184c0.286-0.41,0.624-0.823,0.968-1.273c0.367-0.427,0.792-0.844,1.225-1.291
			c0.926-0.825,1.976-1.697,3.242-2.373c1.237-0.725,2.652-1.307,4.172-1.694c1.514-0.418,3.144-0.605,4.792-0.58
			c1.668,0.003,3.284,0.282,4.963,0.751l1.102,0.356c0.364,0.115,0.793,0.324,1.184,0.485c0.823,0.318,1.521,0.768,2.253,1.171
			c1.4,0.919,2.659,2.025,3.659,3.291c0.972,1.281,1.737,2.658,2.18,4.056c0.248,0.687,0.389,1.385,0.531,2.05
			c0.066,0.677,0.21,1.323,0.193,1.95c0.059,1.25-0.06,2.387-0.238,3.366c-0.103,0.487-0.17,0.949-0.285,1.361
			c-0.12,0.41-0.23,0.787-0.33,1.127c-0.188,0.682-0.455,1.175-0.58,1.527c-0.144,0.347-0.22,0.532-0.22,0.532
			c-0.151,0.364-0.569,0.538-0.934,0.388c-0.33-0.137-0.504-0.491-0.423-0.827l0.015-0.063c0,0,0.044-0.182,0.126-0.522
			c0.07-0.343,0.225-0.834,0.331-1.472c0.054-0.317,0.114-0.669,0.18-1.052c0.061-0.382,0.07-0.801,0.112-1.241
			c0.056-0.441,0.022-0.912,0.018-1.404c0.013-0.493-0.058-1.003-0.109-1.534c-0.025-0.536-0.203-1.065-0.298-1.625
			c-0.174-0.539-0.306-1.111-0.549-1.656c-0.421-1.121-1.126-2.165-1.919-3.169c-0.83-0.987-1.892-1.811-3.032-2.555
			c-0.605-0.315-1.205-0.697-1.826-0.92c-0.322-0.126-0.582-0.273-0.955-0.387l-1.105-0.344c-1.286-0.358-2.735-0.656-4.111-0.659
			c-1.384-0.019-2.764,0.049-4.054,0.368c-1.291,0.29-2.518,0.701-3.608,1.253c-1.111,0.515-2.06,1.188-2.927,1.822
			c-0.403,0.353-0.798,0.688-1.158,1.022c-0.339,0.354-0.681,0.68-0.975,1.009c-0.278,0.344-0.539,0.666-0.78,0.964
			c-0.223,0.305-0.4,0.595-0.578,0.854c-0.358,0.49-0.6,1.018-0.78,1.317c-0.177,0.317-0.27,0.486-0.27,0.486
			c-0.192,0.348-0.63,0.473-0.977,0.279C195.267,274.616,195.135,274.242,195.254,273.917z"/>
	</g>
	<path style="fill:#992400;" d="M222.893,282.492c-2.034,6.698-7.375,11.01-14.074,8.972c-6.7-2.035-9.898-8.941-7.863-15.641
		c2.037-6.7,8.54-10.657,15.237-8.621C222.893,269.24,224.93,275.791,222.893,282.492z"/>
	<g>
		<path d="M214.581,258.231c0,0,0.229-0.037,0.63-0.102c0.198-0.037,0.448-0.059,0.74-0.075c0.291-0.026,0.62-0.043,0.974-0.022
			c0.356-0.001,0.74,0.034,1.146,0.081c0.408,0.031,0.829,0.132,1.267,0.22c0.866,0.219,1.768,0.542,2.624,0.97
			c0.411,0.245,0.835,0.471,1.209,0.759c0.395,0.26,0.734,0.579,1.077,0.869c0.31,0.324,0.631,0.621,0.867,0.96
			c0.258,0.322,0.482,0.639,0.658,0.952c0.2,0.298,0.333,0.6,0.45,0.865c0.128,0.262,0.221,0.495,0.277,0.696
			c0.126,0.395,0.197,0.621,0.197,0.621c0.027,0.086-0.021,0.179-0.107,0.206c-0.08,0.025-0.166-0.014-0.199-0.09l-0.008-0.017
			c0,0-0.093-0.208-0.255-0.571c-0.071-0.186-0.179-0.4-0.322-0.638c-0.133-0.241-0.284-0.511-0.485-0.783
			c-0.18-0.286-0.407-0.572-0.665-0.86c-0.234-0.307-0.56-0.561-0.848-0.864c-0.327-0.265-0.648-0.559-1.023-0.795
			c-0.355-0.264-0.758-0.467-1.146-0.691c-0.407-0.189-0.804-0.404-1.224-0.549c-0.408-0.175-0.833-0.282-1.237-0.408
			c-0.413-0.084-0.808-0.205-1.193-0.257c-0.384-0.065-0.748-0.12-1.088-0.137c-0.683-0.06-1.231-0.066-1.643-0.041
			c-0.406,0.019-0.639,0.029-0.639,0.029c-0.091,0.004-0.168-0.066-0.173-0.157C214.438,258.317,214.499,258.244,214.581,258.231z"
			/>
	</g>
	<path style="fill:#440000;" d="M193.399,257.352c0.222,0.805,11.846-5.673,22.753-4.909c10.906,0.762,16.801,4.37,17.431,3.966
		c0.63-0.403-0.874-10.614-12.649-12.234C209.159,242.554,193.056,256.12,193.399,257.352z"/>
	<g>
		<path d="M246.52,268.401c0,0-0.506,0.779-1.245,2.232c-0.752,1.447-1.729,3.566-2.854,6.129c-1.112,2.567-2.339,5.597-3.472,8.903
			c-1.113,3.303-2.206,6.898-2.627,10.564c-0.092,0.913-0.134,1.831-0.052,2.724l0.094,0.659c0.057,0.209,0.104,0.424,0.166,0.629
			c0.084,0.176,0.165,0.429,0.247,0.544c0.069,0.111,0.135,0.16,0.19,0.202c0.042,0.049,0.153,0.108,0.232,0.164
			c0.726,0.433,1.611,0.708,2.458,0.979c0.862,0.26,1.715,0.517,2.554,0.77c0.842,0.26,1.669,0.529,2.464,0.865
			c0.778,0.35,1.597,0.699,2.145,1.482c0.278,0.396,0.299,0.98,0.098,1.392c-0.189,0.419-0.483,0.719-0.772,0.99
			c-0.296,0.266-0.601,0.503-0.914,0.704c-0.166,0.104-0.285,0.206-0.487,0.306l-0.475,0.237c-0.314,0.157-0.621,0.311-0.922,0.46
			c-0.314,0.129-0.648,0.216-0.961,0.317c-0.316,0.092-0.621,0.206-0.923,0.269c-0.303,0.055-0.597,0.107-0.882,0.158
			c-0.566,0.122-1.105,0.155-1.602,0.194c-0.496,0.055-0.954,0.054-1.367,0.056c-0.826,0.018-1.474-0.043-1.914-0.077
			c-0.439-0.039-0.678-0.076-0.678-0.076c-0.091-0.014-0.152-0.098-0.139-0.189c0.014-0.088,0.098-0.149,0.186-0.138
			c0,0,0.226,0.029,0.659,0.058c0.432,0.023,1.07,0.067,1.88,0.03c0.405-0.011,0.854-0.021,1.337-0.086
			c0.484-0.051,1.011-0.095,1.557-0.228c0.275-0.056,0.559-0.113,0.851-0.173c0.289-0.066,0.566-0.182,0.862-0.272
			c0.291-0.104,0.596-0.183,0.899-0.308c0.3-0.151,0.605-0.308,0.918-0.467l0.473-0.241c0.121-0.056,0.284-0.185,0.427-0.275
			c0.299-0.193,0.58-0.419,0.844-0.659c0.523-0.473,0.969-1.138,0.569-1.681c-0.379-0.554-1.148-0.932-1.894-1.244
			c-0.763-0.315-1.578-0.574-2.413-0.824c-0.842-0.246-1.697-0.496-2.564-0.749c-0.868-0.275-1.752-0.526-2.617-1.027
			c-0.11-0.077-0.208-0.12-0.33-0.236c-0.124-0.104-0.228-0.212-0.281-0.299c-0.177-0.266-0.223-0.47-0.338-0.71
			c-0.076-0.235-0.131-0.475-0.196-0.714c-0.045-0.239-0.073-0.479-0.109-0.721c-0.097-0.963-0.058-1.921,0.029-2.867
			c0.212-1.889,0.636-3.73,1.116-5.516c0.485-1.786,1.045-3.518,1.627-5.177c1.169-3.317,2.425-6.348,3.564-8.917
			c1.141-2.568,2.211-4.654,2.991-6.099c0.78-1.445,1.314-2.225,1.314-2.225l0.005-0.007c0.051-0.075,0.154-0.095,0.23-0.043
			C246.548,268.226,246.568,268.327,246.52,268.401z"/>
	</g>
	<g>
		<path d="M199.421,296.922c0,0,0.461,0.293,1.268,0.805c0.403,0.257,0.894,0.567,1.456,0.924c0.573,0.339,1.176,0.795,1.834,1.291
			c0.66,0.494,1.375,1.029,2.132,1.595c0.745,0.579,1.501,1.221,2.292,1.876c1.597,1.295,3.209,2.773,4.855,4.217
			c1.603,1.487,3.205,2.975,4.708,4.368c1.491,1.403,2.883,2.714,4.075,3.837c1.188,1.129,2.197,2.043,2.904,2.685
			c0.706,0.643,1.109,1.011,1.109,1.011l0.005,0.004c0.067,0.061,0.071,0.166,0.011,0.233c-0.061,0.065-0.161,0.071-0.229,0.015
			c0,0-0.419-0.352-1.152-0.967c-0.73-0.62-1.798-1.479-3.009-2.585c-2.465-2.169-5.654-5.155-8.893-8.084
			c-1.632-1.446-3.229-2.938-4.806-4.235c-0.779-0.661-1.533-1.299-2.247-1.904c-0.733-0.576-1.428-1.121-2.068-1.625
			c-0.642-0.502-1.219-0.978-1.778-1.343c-0.547-0.38-1.023-0.711-1.416-0.984c-0.785-0.546-1.234-0.857-1.234-0.857
			c-0.075-0.052-0.095-0.154-0.043-0.23C199.246,296.895,199.347,296.875,199.421,296.922z"/>
	</g>
	<g>
		<path d="M230.091,320.174c0,0,2.189-0.161,5.455-0.484c1.634-0.154,3.537-0.366,5.565-0.662c1.016-0.144,2.061-0.31,3.118-0.505
			c1.062-0.174,2.125-0.42,3.195-0.635c1.063-0.242,2.133-0.461,3.166-0.752c1.044-0.256,2.048-0.582,3.023-0.885
			c0.966-0.329,1.897-0.66,2.762-1.015c0.855-0.376,1.682-0.698,2.397-1.092c0.728-0.366,1.396-0.702,1.956-1.057
			c0.569-0.339,1.077-0.62,1.451-0.913c0.775-0.554,1.218-0.87,1.218-0.87l0.013-0.01c0.073-0.053,0.177-0.036,0.229,0.038
			c0.052,0.072,0.036,0.172-0.033,0.226c0,0-0.435,0.34-1.198,0.935c-0.371,0.314-0.873,0.62-1.438,0.988
			c-0.556,0.385-1.218,0.758-1.958,1.134c-0.723,0.41-1.555,0.749-2.419,1.143c-0.873,0.372-1.811,0.721-2.786,1.068
			c-0.982,0.32-1.996,0.665-3.046,0.938c-1.042,0.31-2.118,0.546-3.189,0.806c-4.317,0.896-8.695,1.393-11.98,1.648
			c-1.642,0.139-3.018,0.181-3.976,0.229c-0.959,0.036-1.507,0.058-1.507,0.058c-0.091,0.004-0.168-0.066-0.172-0.158
			C229.934,320.257,230.003,320.182,230.091,320.174z"/>
	</g>
	<g>
		<path d="M319.593,374.191c0,0,2.176,0.291,5.439,0.645c1.631,0.184,3.537,0.367,5.583,0.493c1.023,0.066,2.08,0.118,3.155,0.145
			c1.074,0.048,2.167,0.024,3.258,0.033c1.09-0.019,2.183-0.014,3.253-0.087c1.074-0.036,2.123-0.15,3.141-0.246
			c1.013-0.124,1.992-0.257,2.911-0.427c0.915-0.192,1.789-0.338,2.569-0.577c0.789-0.209,1.512-0.4,2.132-0.634
			c0.626-0.215,1.181-0.385,1.607-0.596c0.872-0.383,1.37-0.603,1.37-0.603l0.014-0.006c0.084-0.037,0.181,0.001,0.218,0.084
			c0.035,0.081,0,0.176-0.079,0.215c0,0-0.496,0.243-1.364,0.668c-0.428,0.232-0.982,0.428-1.609,0.672
			c-0.623,0.264-1.348,0.493-2.149,0.709c-0.791,0.254-1.675,0.414-2.602,0.623c-0.931,0.184-1.921,0.334-2.945,0.475
			c-1.028,0.111-2.091,0.241-3.175,0.293c-1.083,0.089-2.185,0.1-3.286,0.134c-4.409-0.009-8.797-0.419-12.064-0.843
			c-1.636-0.2-2.99-0.441-3.938-0.591c-0.946-0.161-1.487-0.253-1.487-0.253c-0.09-0.015-0.15-0.1-0.136-0.189
			C319.422,374.24,319.505,374.18,319.593,374.191z"/>
	</g>
	<g>
		<path d="M298.461,482.646c0,0,2.181-0.26,5.429-0.729c1.625-0.228,3.518-0.524,5.53-0.911c1.007-0.19,2.044-0.402,3.092-0.645
			c1.053-0.222,2.105-0.516,3.163-0.778c1.052-0.289,2.11-0.557,3.13-0.893c1.03-0.303,2.019-0.674,2.98-1.02
			c0.949-0.372,1.865-0.745,2.713-1.138c0.838-0.414,1.649-0.773,2.346-1.198c0.711-0.398,1.363-0.765,1.906-1.145
			c0.554-0.363,1.048-0.667,1.409-0.977c0.749-0.588,1.177-0.924,1.177-0.924l0.012-0.01c0.072-0.057,0.176-0.044,0.232,0.027
			c0.055,0.069,0.044,0.17-0.023,0.227c0,0-0.42,0.359-1.156,0.987c-0.355,0.331-0.843,0.658-1.391,1.052
			c-0.538,0.41-1.183,0.813-1.905,1.221c-0.703,0.442-1.52,0.818-2.365,1.25c-0.854,0.411-1.777,0.802-2.735,1.193
			c-0.968,0.363-1.964,0.753-3.001,1.073c-1.026,0.355-2.091,0.641-3.149,0.948c-4.273,1.088-8.624,1.782-11.895,2.185
			c-1.634,0.213-3.006,0.316-3.961,0.407c-0.956,0.079-1.502,0.125-1.502,0.125c-0.091,0.008-0.172-0.059-0.18-0.149
			C298.309,482.736,298.374,482.657,298.461,482.646z"/>
	</g>
	<g>
		<path d="M221.126,322.27c0,0,0.147,0.191,0.404,0.527c0.122,0.179,0.303,0.348,0.499,0.551c0.186,0.208,0.433,0.417,0.702,0.646
			c0.527,0.467,1.229,0.904,2.004,1.317c0.393,0.2,0.803,0.396,1.24,0.551c0.424,0.185,0.886,0.289,1.334,0.428
			c0.457,0.106,0.912,0.227,1.372,0.281c0.456,0.087,0.912,0.097,1.352,0.133c0.438-0.01,0.867,0.02,1.267-0.021
			c0.402-0.032,0.784-0.063,1.128-0.142c0.35-0.056,0.664-0.125,0.938-0.211c0.278-0.073,0.521-0.14,0.708-0.227
			c0.385-0.153,0.604-0.24,0.604-0.24l0.019-0.008c0.084-0.033,0.18,0.008,0.214,0.092c0.031,0.079-0.004,0.169-0.078,0.207
			c0,0-0.22,0.113-0.604,0.31c-0.189,0.108-0.436,0.201-0.72,0.305c-0.28,0.117-0.604,0.225-0.97,0.298
			c-0.36,0.102-0.76,0.154-1.184,0.211c-0.423,0.064-0.874,0.066-1.34,0.076c-0.464-0.028-0.947-0.032-1.429-0.115
			c-0.487-0.05-0.97-0.167-1.455-0.273c-0.474-0.146-0.956-0.271-1.403-0.472c-0.457-0.174-0.889-0.387-1.3-0.606
			c-0.412-0.216-0.786-0.473-1.135-0.718c-0.332-0.27-0.664-0.499-0.923-0.772c-0.273-0.252-0.514-0.496-0.697-0.747
			c-0.191-0.24-0.366-0.444-0.467-0.628c-0.225-0.358-0.354-0.564-0.354-0.564c-0.049-0.077-0.025-0.179,0.053-0.227
			C220.979,322.184,221.074,322.204,221.126,322.27z"/>
	</g>
	<g>
		<path d="M250.333,273.379c0,0,0.186-0.136,0.51-0.373c0.325-0.222,0.827-0.567,1.455-0.866c0.623-0.322,1.385-0.633,2.226-0.89
			c0.847-0.235,1.769-0.426,2.707-0.512c0.47-0.016,0.94-0.056,1.404-0.021c0.465,0.006,0.919,0.064,1.357,0.123
			c0.873,0.148,1.673,0.387,2.316,0.686c0.329,0.132,0.615,0.286,0.856,0.445c0.248,0.146,0.461,0.275,0.619,0.41
			c0.323,0.254,0.508,0.398,0.508,0.398c0.071,0.057,0.084,0.16,0.027,0.231c-0.053,0.066-0.146,0.082-0.216,0.038l-0.017-0.01
			c0,0-0.19-0.118-0.525-0.325c-0.159-0.113-0.373-0.218-0.619-0.334c-0.239-0.129-0.521-0.247-0.837-0.358
			c-0.306-0.134-0.659-0.219-1.026-0.319c-0.37-0.094-0.771-0.153-1.181-0.219c-0.414-0.048-0.843-0.096-1.282-0.094
			c-0.439-0.025-0.885,0.021-1.329,0.044c-0.891,0.071-1.774,0.231-2.588,0.443c-0.399,0.128-0.797,0.222-1.158,0.357
			c-0.364,0.129-0.709,0.251-1.015,0.393c-0.627,0.265-1.112,0.513-1.465,0.716c-0.35,0.198-0.549,0.313-0.549,0.313
			c-0.079,0.045-0.181,0.017-0.226-0.062C250.245,273.521,250.267,273.428,250.333,273.379z"/>
	</g>
	<path style="fill:#440000;" d="M249.619,263.906c0.607,1.775,6.884-1.664,16.398,1.169c9.515,2.834,12.146,5.271,13.157,5.268
		c1.012-0.005-5.867-11.665-14.776-12.919C255.488,256.167,249.619,263.906,249.619,263.906z"/>
	<path d="M244.27,285.708c-2.421,2.32,23.961,9.131,25.462,6.018c1.501-3.111-17.501-5.439-16.9-6.858
		c0.602-1.419,22.032-2.046,22.085-4.024C274.969,278.862,254.118,276.26,244.27,285.708z"/>
	<path style="fill:#F964BA;" d="M324.172,265.906c-0.684,1.919,21.347-7.465,45.361-3.531c24.016,3.93,64.828,15.262,66.952,0.174
		c2.121-15.088-15.318-20.843-26.522-22.185c-11.203-1.343-19.739-2.545-19.615-5.011c0.124-2.462,17.092-13.75,30.936-17.277
		c23.372-5.951,26.108-23.417-1.61-26.178C387.371,188.68,337.456,228.672,324.172,265.906z"/>
	<path style="fill:#F964BA;" d="M382.683,190.263c-3.542-0.186,2.738-14.331,0.313-23.783c-2.428-9.454-10.904-15.157-3.097-20.835
		c7.809-5.678,11.277,16.37,13.405,15.608c2.126-0.762,9.676-21.268,16.396-13.695C420.457,159.681,390.26,190.66,382.683,190.263z"
		/>
	<path style="fill:#FF7EC3;" d="M409.963,240.364c-11.203-1.343-19.739-2.545-19.615-5.011c0.124-2.462,17.092-13.75,30.936-17.277
		c23.372-5.951,26.108-23.417-1.61-26.178c-15.471-1.541-34.979,6.832-52.571,20.064c11.151,15.933,18.283,34.45,20.285,53.752
		c22.363,4.317,47.444,8.577,49.098-3.165C438.606,247.46,421.167,241.705,409.963,240.364z"/>
	<path style="fill:#FF7EC3;" d="M409.699,147.558c-6.72-7.573-14.27,12.933-16.396,13.695c-2.128,0.762-5.597-21.286-13.405-15.608
		c-7.164,5.211-0.62,10.444,2.383,18.573c7.758,0.046,15.16,3.466,21.57,8.345C410.56,163.592,414.878,153.393,409.699,147.558z"/>
	<path style="fill:#68C5F0;" d="M118.285,500.055h128.86c12.186-27.182,29.195-65.399,29.195-66.957
		c0-2.431-58.301-40.892-59.11-42.108c-0.811-1.215,5.263-10.526,5.263-12.957c0-2.428-48.11-22.529-50.706-23.077
		c-2.487-0.524-2.331,6.478-3.743,6.883c-1.412,0.406-35.837-46.155-39.076-45.954c-3.239,0.199-27.532,66.603-23.078,107.494
		C108.473,447.101,114.053,478.157,118.285,500.055z"/>
	<path style="fill:#0088E0;" d="M158.372,486.064c-19.383-8.399-38.756-24.948-50.222-44.982
		c2.872,20.095,6.896,42.212,10.135,58.974h128.86c3.655-8.152,7.744-17.297,11.677-26.148
		C228.092,492.549,193.429,501.645,158.372,486.064z"/>
	<g>
		<path d="M136.85,345.639c0,0,0.378,0.91,1.042,2.503c0.677,1.587,1.579,3.885,2.778,6.585c0.591,1.353,1.23,2.82,1.907,4.371
			c0.661,1.559,1.462,3.156,2.234,4.833c0.792,1.668,1.571,3.411,2.473,5.128c0.876,1.728,1.768,3.484,2.658,5.241
			c0.936,1.732,1.872,3.464,2.794,5.169c0.897,1.72,1.885,3.352,2.827,4.938c0.956,1.578,1.817,3.145,2.747,4.558
			c0.924,1.418,1.797,2.758,2.604,3.995c0.402,0.619,0.788,1.212,1.155,1.776c0.39,0.549,0.76,1.068,1.107,1.558
			c0.695,0.979,1.302,1.831,1.801,2.533c0.999,1.405,1.569,2.208,1.569,2.208l0.005,0.007c0.053,0.074,0.036,0.178-0.039,0.23
			c-0.073,0.052-0.175,0.035-0.228-0.036c0,0-0.59-0.791-1.622-2.176c-0.517-0.693-1.144-1.534-1.863-2.499
			c-0.36-0.482-0.743-0.996-1.146-1.538c-0.374-0.562-0.767-1.152-1.178-1.769c-0.818-1.235-1.705-2.572-2.643-3.987
			c-0.944-1.411-1.82-2.974-2.791-4.55c-0.958-1.585-1.962-3.215-2.875-4.932c-0.938-1.703-1.891-3.434-2.843-5.163
			c-0.881-1.768-1.762-3.535-2.629-5.275c-0.89-1.729-1.658-3.481-2.438-5.16c-0.76-1.688-1.55-3.293-2.2-4.861
			c-0.666-1.561-1.296-3.036-1.878-4.398c-0.596-1.356-1.097-2.616-1.523-3.739c-0.436-1.12-0.816-2.097-1.129-2.9
			c-0.626-1.608-0.984-2.527-0.984-2.527c-0.033-0.085,0.009-0.181,0.094-0.214C136.721,345.516,136.815,345.556,136.85,345.639z"/>
	</g>
	<g>
		<path d="M203.212,415.249c0,0,4.008,0.599,10.02,1.496c1.501,0.233,3.128,0.486,4.849,0.754c1.724,0.246,3.517,0.669,5.385,1.018
			c3.731,0.738,7.711,1.525,11.691,2.313c1.967,0.491,3.935,0.983,5.872,1.467c1.936,0.488,3.84,0.969,5.684,1.435
			c1.839,0.48,3.634,0.881,5.306,1.374c1.665,0.515,3.239,1.001,4.692,1.45c5.801,1.83,9.668,3.051,9.668,3.051
			c0.087,0.027,0.136,0.12,0.108,0.207c-0.027,0.086-0.118,0.134-0.204,0.108l-0.01-0.003c0,0-3.885-1.143-9.713-2.857
			c-1.453-0.437-3.028-0.91-4.693-1.411c-1.672-0.479-3.468-0.867-5.307-1.332c-1.844-0.45-3.749-0.915-5.684-1.389
			c-1.937-0.468-3.903-0.943-5.871-1.419c-3.964-0.815-7.929-1.63-11.645-2.394c-1.863-0.362-3.646-0.797-5.369-1.058
			c-1.718-0.28-3.343-0.546-4.843-0.791c-5.992-1.016-9.988-1.693-9.988-1.693c-0.09-0.016-0.15-0.101-0.135-0.19
			C203.039,415.295,203.123,415.236,203.212,415.249z"/>
	</g>
	<path style="fill:#F964BA;" d="M232.162,500.055c5.372-17.637,11.383-37.678,11.383-39.022c0-2.428-9.919-3.845-11.134-4.655
		c-1.215-0.811-2.632-58.505-3.036-60.123c-0.405-1.619-8.098-6.885-8.806-6.072c-0.709,0.809,2.125,62.754,0.505,63.97
		c-1.62,1.215-67.613-17.006-68.423-18.625c-0.809-1.621,12.552-80.772,12.087-81.987c-0.463-1.216-8.241-9.515-9.246-8.3
		c0,0-15.594,84.213-16.405,85.834c-0.811,1.619-12.955-4.049-15.655-1.9c-1.756,1.4,3.864,42.419,8.001,70.881H232.162z"/>
	<path style="fill:#FF7EC3;" d="M194.964,487.141c13.868,3.467,27.508,2.826,41.025,0.29c4.049-13.438,7.556-25.371,7.556-26.398
		c0-2.428-9.919-3.845-11.134-4.655c-1.215-0.811-2.632-58.505-3.036-60.123c-0.405-1.619-8.098-6.885-8.806-6.072
		c-0.709,0.809,2.125,62.754,0.505,63.97c-1.62,1.215-67.613-17.006-68.423-18.625c-0.809-1.621,12.552-80.772,12.087-81.987
		c-0.463-1.216-8.241-9.515-9.246-8.3c0,0-15.594,84.213-16.405,85.834c-0.811,1.619-12.955-4.049-15.655-1.9
		c-0.42,0.334-0.414,2.943-0.114,7.081C143.018,459.236,165.326,479.518,194.964,487.141z"/>
	<path style="fill:#FFC0E1;" d="M336.827,455.367c0,0,3.281-8.503,4.234-9.11c0.95-0.607,6.841-0.405,22.125,4.555
		c15.281,4.96,21.364,9.008,21.445,9.818c0.084,0.81-4.92,9.313-4.92,9.313L336.827,455.367z"/>
	<path style="fill:#0088E0;" d="M299.089,500.055c-2.977-9.957-6.86-23.066-10.197-32.24c-6.074-16.702-8.199-31.277-12.552-34.717
		l-30.265,64.778l1.064,2.179H299.089z"/>
	<g>
		<path d="M188.714,389.139c0,0,0.539-1.392,1.347-3.478c0.819-2.082,1.958-4.838,3.102-7.593c0.52-1.394,1.013-2.796,1.488-4.106
			c0.485-1.308,0.939-2.528,1.326-3.574c0.805-2.086,1.341-3.476,1.341-3.476l0.004-0.01c0.032-0.085,0.128-0.128,0.213-0.095
			c0.082,0.031,0.124,0.122,0.098,0.204c0,0-0.46,1.422-1.148,3.553c-0.705,2.128-1.675,4.958-2.678,7.774
			c-1.165,2.746-2.336,5.488-3.248,7.531c-0.924,2.038-1.54,3.396-1.54,3.396c-0.038,0.084-0.136,0.12-0.219,0.083
			C188.72,389.313,188.683,389.219,188.714,389.139z"/>
	</g>
	<g>
		<path d="M241.566,131.333c0,0,0.34-0.154,0.977-0.442c0.646-0.272,1.552-0.749,2.78-1.213c0.609-0.243,1.283-0.511,2.018-0.803
			c0.745-0.259,1.552-0.538,2.414-0.837c1.732-0.569,3.712-1.143,5.906-1.629c1.091-0.268,2.251-0.438,3.438-0.675
			c1.199-0.169,2.438-0.368,3.719-0.491c2.563-0.269,5.282-0.361,8.093-0.289c2.809,0.124,5.707,0.409,8.611,0.96
			c2.897,0.576,5.799,1.375,8.616,2.419c2.808,1.072,5.507,2.41,8.048,3.917c2.555,1.492,4.869,3.275,7.009,5.096
			c2.149,1.821,3.983,3.841,5.674,5.785c1.61,2.012,3.063,3.974,4.222,5.902c0.593,0.956,1.157,1.873,1.616,2.79
			c0.48,0.904,0.946,1.757,1.308,2.596c0.373,0.833,0.76,1.596,1.049,2.33c0.291,0.734,0.558,1.408,0.798,2.017
			c0.489,1.214,0.763,2.21,1.001,2.868c0.223,0.665,0.341,1.02,0.341,1.02c0.029,0.087-0.018,0.18-0.104,0.208
			c-0.086,0.029-0.179-0.017-0.208-0.102l-0.003-0.008c0,0-0.124-0.351-0.354-1.009c-0.248-0.652-0.533-1.637-1.038-2.836
			c-0.248-0.601-0.522-1.267-0.821-1.991c-0.299-0.725-0.694-1.477-1.076-2.297c-0.371-0.827-0.845-1.666-1.335-2.555
			c-0.471-0.9-1.026-1.811-1.62-2.753c-1.158-1.903-2.605-3.837-4.208-5.819c-1.683-1.913-3.504-3.9-5.637-5.688
			c-2.123-1.789-4.417-3.537-6.946-4.996c-2.516-1.474-5.185-2.781-7.96-3.824c-2.777-1.033-5.635-1.845-8.496-2.427
			c-2.866-0.56-5.729-0.856-8.508-0.994c-2.78-0.086-5.474-0.009-8.014,0.244c-1.271,0.115-2.498,0.306-3.688,0.467
			c-1.179,0.228-2.329,0.391-3.413,0.651c-2.176,0.479-4.148,1.019-5.878,1.555c-0.86,0.283-1.665,0.549-2.41,0.794
			c-0.732,0.279-1.404,0.535-2.011,0.766c-1.223,0.439-2.145,0.907-2.792,1.167c-0.641,0.278-0.982,0.427-0.982,0.427
			c-0.084,0.036-0.182-0.002-0.218-0.085C241.447,131.466,241.485,131.37,241.566,131.333z"/>
	</g>
	<g>
		<path d="M151.669,455.808c0,0,0.751,0.687,2.064,1.888c0.657,0.601,1.454,1.33,2.37,2.167c0.91,0.843,1.945,1.783,3.113,2.761
			c1.157,0.99,2.41,2.063,3.735,3.198c1.305,1.158,2.787,2.259,4.262,3.463c1.495,1.181,3.008,2.44,4.623,3.623
			c1.598,1.204,3.221,2.428,4.844,3.65c3.285,2.395,6.547,4.823,9.683,6.992c3.109,2.206,6.047,4.216,8.565,5.939
			c5.028,3.459,8.38,5.766,8.38,5.766c0.075,0.051,0.095,0.154,0.043,0.229c-0.051,0.073-0.151,0.093-0.227,0.044
			c0,0-0.851-0.558-2.34-1.534c-1.482-0.986-3.629-2.351-6.153-4.067c-2.532-1.705-5.486-3.693-8.616-5.879
			c-3.155-2.147-6.441-4.555-9.75-6.929c-1.618-1.236-3.236-2.474-4.829-3.691c-1.608-1.197-3.116-2.472-4.605-3.668
			c-1.47-1.219-2.944-2.33-4.247-3.505c-1.322-1.149-2.571-2.236-3.725-3.239c-0.573-0.506-1.137-0.975-1.646-1.448
			c-0.503-0.48-0.979-0.936-1.427-1.365c-0.896-0.856-1.677-1.603-2.32-2.219c-1.286-1.231-2.021-1.935-2.021-1.935
			c-0.066-0.063-0.068-0.167-0.005-0.233C151.5,455.75,151.603,455.748,151.669,455.808z"/>
	</g>
	<g>
		<path d="M193.023,477.448c0,0,1.75-0.394,4.376-0.983c0.658-0.142,1.371-0.295,2.124-0.457c0.751-0.173,1.562-0.284,2.392-0.426
			c1.665-0.271,3.44-0.56,5.216-0.849c1.786-0.2,3.572-0.401,5.247-0.589c0.838-0.088,1.645-0.196,2.417-0.234
			c0.771-0.048,1.5-0.092,2.173-0.133c2.691-0.14,4.484-0.233,4.484-0.233c0.091-0.005,0.169,0.065,0.173,0.156
			c0.005,0.089-0.061,0.164-0.148,0.173l-0.008,0.001c0,0-1.784,0.175-4.459,0.438c-0.669,0.06-1.394,0.125-2.16,0.193
			c-0.768,0.058-1.569,0.197-2.403,0.286c-1.666,0.202-3.443,0.418-5.221,0.634c-1.769,0.272-3.536,0.544-5.194,0.799
			c-0.827,0.139-1.633,0.224-2.391,0.373c-0.758,0.141-1.475,0.274-2.136,0.397c-2.65,0.468-4.418,0.779-4.418,0.779
			c-0.09,0.016-0.175-0.044-0.191-0.134C192.882,477.55,192.938,477.467,193.023,477.448z"/>
	</g>
	<path style="fill:#FFC0E1;" d="M166.854,237.474c-1.343-1.214,8.412-42.181,10.736-44.325c2.325-2.144,46.138-1.518,82.292,8.008
		c36.154,9.526,61.134,30.563,60.468,33.434c-0.664,2.871-11.627,34.638-13.628,35.145c-2.003,0.507-34.209-24.622-63.059-31.274
		C214.809,231.809,169.403,239.777,166.854,237.474z"/>
	<path style="fill:#FFC0E1;" d="M188.615,374.628c1.108-2.753,4.031-4.917,8.363-2.969c4.329,1.948,2.381,6.605,1.405,8.119
		c-0.974,1.516-3.766,3.314-7.384,1.341C188.314,379.651,187.71,376.879,188.615,374.628z"/>
	<path style="fill:#68C5F0;" d="M372.867,500.055c4.444-9.273,14.146-28.854,14.08-29.506c-0.083-0.81-4.547-5.892-23.044-12.571
		c-18.495-6.681-29.753-8.758-30.779-8.534c-2.944,0.638-13.359,28.477-21.21,50.611H372.867z"/>
	<g>
		<path d="M390.735,181.899c0,0,0.276-0.232,0.759-0.638c0.473-0.414,1.194-0.967,1.977-1.7c0.396-0.361,0.825-0.752,1.279-1.166
			c0.461-0.403,0.895-0.892,1.381-1.354c0.474-0.475,0.98-0.949,1.442-1.482c0.475-0.521,0.956-1.051,1.437-1.58
			c0.459-0.549,0.919-1.098,1.371-1.638c0.465-0.531,0.867-1.096,1.273-1.63c0.393-0.544,0.819-1.037,1.158-1.551
			c0.352-0.506,0.684-0.984,0.989-1.426c0.625-0.876,1.076-1.652,1.426-2.175c0.339-0.53,0.533-0.832,0.533-0.832l0.004-0.007
			c0.05-0.077,0.151-0.099,0.228-0.05c0.073,0.047,0.097,0.144,0.055,0.219c0,0-0.176,0.316-0.483,0.868
			c-0.323,0.542-0.71,1.366-1.313,2.269c-0.294,0.457-0.612,0.952-0.948,1.475c-0.327,0.53-0.732,1.048-1.129,1.599
			c-0.405,0.545-0.806,1.122-1.27,1.665c-0.452,0.552-0.91,1.113-1.369,1.674c-0.493,0.531-0.986,1.062-1.472,1.585
			c-0.475,0.534-0.993,1.008-1.479,1.483c-0.493,0.467-0.947,0.941-1.434,1.335c-0.476,0.403-0.926,0.785-1.341,1.137
			c-0.817,0.721-1.58,1.199-2.075,1.591c-0.508,0.374-0.797,0.588-0.797,0.588c-0.074,0.054-0.177,0.039-0.232-0.035
			C390.657,182.053,390.67,181.955,390.735,181.899z"/>
	</g>
	<g>
		<path d="M375.267,259.895c0,0,1.923,0.381,4.806,0.953c2.884,0.572,6.705,1.444,10.53,2.304c1.911,0.418,3.823,0.837,5.616,1.23
			c0.898,0.184,1.758,0.413,2.585,0.561c0.825,0.158,1.607,0.308,2.326,0.445c2.88,0.577,4.8,0.962,4.8,0.962l0.008,0.002
			c0.089,0.018,0.147,0.104,0.129,0.193c-0.017,0.087-0.1,0.145-0.188,0.131c0,0-1.938-0.304-4.845-0.76
			c-0.727-0.12-1.514-0.25-2.346-0.388c-0.834-0.13-1.7-0.327-2.602-0.512c-1.799-0.378-3.719-0.781-5.639-1.185
			c-3.814-0.893-7.63-1.787-10.491-2.457c-2.856-0.695-4.761-1.158-4.761-1.158c-0.089-0.021-0.144-0.11-0.122-0.199
			C375.096,259.932,375.182,259.878,375.267,259.895z"/>
	</g>
	<g>
		<path d="M392.367,228.703c0,0,0.416-0.268,1.146-0.737c0.733-0.463,1.76-1.155,3.03-1.929c1.267-0.779,2.732-1.709,4.352-2.627
			c1.597-0.955,3.362-1.87,5.109-2.817c0.897-0.427,1.796-0.854,2.68-1.275c0.874-0.441,1.775-0.787,2.637-1.145
			c0.868-0.344,1.686-0.725,2.506-0.976c0.814-0.267,1.582-0.519,2.291-0.751c0.355-0.113,0.692-0.235,1.02-0.326
			c0.332-0.078,0.647-0.151,0.942-0.221c0.59-0.138,1.104-0.258,1.528-0.357c0.847-0.198,1.331-0.312,1.331-0.312
			c0.089-0.02,0.177,0.035,0.197,0.123c0.021,0.086-0.03,0.172-0.115,0.196l-0.014,0.004c0,0-0.475,0.134-1.307,0.369
			c-0.415,0.117-0.92,0.259-1.498,0.422c-0.581,0.151-1.228,0.348-1.921,0.612c-0.696,0.248-1.45,0.517-2.248,0.801
			c-0.804,0.267-1.604,0.675-2.462,1.015c-0.85,0.362-1.739,0.711-2.604,1.157c-0.873,0.424-1.76,0.856-2.647,1.287
			c-1.74,0.932-3.504,1.821-5.103,2.76c-1.616,0.905-3.116,1.771-4.396,2.522c-2.569,1.492-4.282,2.486-4.282,2.486
			c-0.079,0.045-0.18,0.019-0.226-0.06C392.268,228.849,392.294,228.751,392.367,228.703z"/>
	</g>
	<g>
		<path d="M332.135,260.973c0.001,0,0.491-0.213,1.241-0.489c0.748-0.281,1.76-0.61,2.774-0.932c0.998-0.348,1.998-0.69,2.763-0.912
			c0.762-0.228,1.282-0.353,1.282-0.354l0.008-0.001c0.089-0.022,0.178,0.033,0.199,0.122c0.019,0.076-0.02,0.153-0.088,0.188
			c0-0.001-0.48,0.235-1.219,0.55c-0.737,0.318-1.737,0.7-2.741,1.075c-1.021,0.301-2.043,0.595-2.82,0.779
			c-0.776,0.191-1.303,0.29-1.302,0.29c-0.091,0.017-0.178-0.043-0.194-0.133C332.023,261.079,332.065,261.003,332.135,260.973z"/>
	</g>
	<g>
		<path d="M169.512,234.191c0,0,0.391-2.045,0.978-5.113c0.59-3.066,1.469-7.14,2.341-11.213c0.518-2.021,1.037-4.041,1.522-5.935
			c0.255-0.944,0.454-1.869,0.749-2.717c0.284-0.851,0.552-1.656,0.8-2.398c1.013-2.96,1.689-4.933,1.689-4.933
			c0.029-0.086,0.123-0.132,0.209-0.102c0.084,0.028,0.13,0.118,0.105,0.203l-0.004,0.013c0,0-0.594,1.992-1.486,4.979
			c-0.229,0.744-0.476,1.551-0.738,2.403c-0.275,0.848-0.442,1.78-0.695,2.72c-0.469,1.891-0.97,3.907-1.47,5.924
			c-0.907,4.061-1.814,8.123-2.494,11.17c-0.71,3.041-1.183,5.069-1.183,5.069c-0.02,0.089-0.109,0.144-0.198,0.123
			C169.549,234.364,169.495,234.278,169.512,234.191z"/>
	</g>
	<g>
		<path d="M314.818,221.232c0,0,0.39-0.841,1.014-2.081c0.318-0.617,0.663-1.349,1.133-2.088c0.452-0.748,0.934-1.546,1.415-2.343
			c0.535-0.761,1.07-1.52,1.572-2.233c0.487-0.723,1.019-1.341,1.457-1.882c0.887-1.076,1.498-1.773,1.498-1.773
			c0.06-0.069,0.164-0.076,0.232-0.016c0.064,0.056,0.074,0.149,0.028,0.217l-0.005,0.007c0,0-0.518,0.768-1.327,1.89
			c-0.203,0.279-0.424,0.582-0.656,0.901c-0.24,0.315-0.448,0.68-0.698,1.032c-0.483,0.714-1,1.477-1.517,2.239
			c-0.96,1.566-1.984,3.088-2.659,4.308c-0.702,1.198-1.198,1.981-1.198,1.981c-0.049,0.077-0.15,0.1-0.228,0.051
			C314.809,221.396,314.783,221.306,314.818,221.232z"/>
	</g>
	<g>
		<path d="M191.042,178.743c-0.001,0,0.284-0.927,0.742-2.307c0.457-1.38,1.113-3.202,1.775-5.022
			c0.685-1.812,1.375-3.622,1.926-4.966c0.552-1.344,0.938-2.234,0.938-2.234c0.037-0.084,0.134-0.123,0.218-0.086
			c0.078,0.034,0.116,0.121,0.093,0.2c0,0.001-0.287,0.927-0.745,2.306c-0.457,1.379-1.112,3.202-1.773,5.023
			c-0.684,1.812-1.373,3.622-1.925,4.967c-0.551,1.345-0.938,2.233-0.939,2.233c-0.036,0.084-0.134,0.122-0.217,0.085
			C191.056,178.909,191.017,178.822,191.042,178.743z"/>
	</g>
	<g>
		<path style="fill:#FFFFFF;" d="M197.352,277.197c0,0,0.213-0.077,0.574-0.157c0.363-0.084,0.874-0.171,1.478-0.227
			c0.609-0.039,1.292-0.071,1.987-0.074c0.702,0.007,1.438,0.069,2.166,0.178c1.534,0.212,3.011,0.628,4.143,1.13
			c0.56,0.25,1.019,0.496,1.335,0.692c0.316,0.192,0.492,0.331,0.492,0.331c0.586,0.466,0.684,1.318,0.218,1.904
			c-0.147,0.186-0.335,0.323-0.54,0.408l-0.043,0.018c0,0-0.207,0.085-0.561,0.183c-0.354,0.101-0.852,0.212-1.442,0.299
			c-1.163,0.17-2.756,0.191-4.287-0.015c-0.802-0.119-1.597-0.286-2.329-0.494c-0.742-0.199-1.395-0.457-1.92-0.739
			c-0.535-0.278-0.973-0.551-1.274-0.765c-0.303-0.21-0.47-0.361-0.47-0.361c-0.561-0.509-0.602-1.376-0.093-1.936
			c0.154-0.17,0.342-0.293,0.543-0.366L197.352,277.197z"/>
	</g>
	<g>
		<path style="fill:#FFFFFF;" d="M234.591,302.593c0,0,0.515,0.063,1.267,0.225c0.752,0.161,1.745,0.408,2.719,0.715
			c0.977,0.299,1.934,0.662,2.645,0.952c0.711,0.293,1.172,0.53,1.172,0.53c0.127,0.064,0.177,0.22,0.111,0.347
			c-0.051,0.099-0.157,0.151-0.262,0.138c0,0-0.515-0.065-1.267-0.227c-0.751-0.164-1.745-0.406-2.719-0.713
			c-0.977-0.299-1.935-0.657-2.646-0.95c-0.712-0.292-1.172-0.532-1.172-0.532c-0.126-0.065-0.176-0.222-0.109-0.348
			C234.382,302.632,234.487,302.581,234.591,302.593z"/>
	</g>
	<g>
		<path d="M382.341,447.807c0,0,0.473-1.608,1.182-4.021c0.183-0.602,0.381-1.253,0.591-1.941c0.233-0.685,0.353-1.433,0.556-2.188
			c0.37-1.519,0.765-3.14,1.158-4.76c0.325-1.64,0.65-3.279,0.955-4.816c0.141-0.771,0.32-1.508,0.436-2.218
			c0.114-0.709,0.224-1.38,0.324-1.999c0.426-2.476,0.71-4.125,0.71-4.125l0.001-0.007c0.016-0.09,0.102-0.15,0.191-0.134
			c0.087,0.015,0.146,0.096,0.136,0.182c0,0-0.203,1.666-0.508,4.165c-0.16,1.249-0.34,2.708-0.652,4.252
			c-0.291,1.548-0.601,3.199-0.911,4.851c-0.414,1.632-0.828,3.264-1.216,4.794c-0.206,0.761-0.353,1.515-0.608,2.188
			c-0.23,0.682-0.448,1.327-0.649,1.922c-0.829,2.374-1.381,3.957-1.381,3.957c-0.03,0.086-0.124,0.132-0.21,0.102
			C382.361,447.981,382.316,447.891,382.341,447.807z"/>
	</g>
	<g>
		<path d="M367.642,410.648c0,0,0.374-1.58,0.935-3.949c0.145-0.592,0.301-1.232,0.466-1.909c0.131-0.683,0.269-1.402,0.411-2.148
			c0.147-0.743,0.299-1.511,0.453-2.291c0.146-0.783,0.33-1.568,0.45-2.37c1.093-6.395,2.185-12.789,2.185-12.789
			c0.014-0.09,0.099-0.15,0.188-0.137c0.088,0.015,0.148,0.097,0.138,0.184c0,0-0.194,1.612-0.485,4.03
			c-0.165,1.207-0.319,2.62-0.575,4.122c-0.243,1.505-0.503,3.108-0.763,4.713c-0.123,0.803-0.321,1.598-0.476,2.384
			c-0.164,0.785-0.325,1.558-0.482,2.305c-0.161,0.747-0.316,1.468-0.464,2.152c-0.186,0.672-0.363,1.307-0.526,1.894
			c-0.683,2.337-1.138,3.895-1.138,3.895c-0.025,0.087-0.117,0.138-0.204,0.112C367.671,410.821,367.621,410.733,367.642,410.648z"
			/>
	</g>
	<g>
		<path d="M70.584,483.784c0,0,0.968,0.73,2.42,1.824c1.444,1.104,3.339,2.615,5.229,4.132c1.876,1.534,3.747,3.073,5.128,4.256
			c1.373,1.191,2.289,1.986,2.289,1.986c0.069,0.06,0.076,0.164,0.017,0.232c-0.058,0.066-0.156,0.075-0.225,0.023
			c0,0-0.968-0.729-2.419-1.825c-1.444-1.105-3.339-2.615-5.23-4.131c-1.877-1.533-3.749-3.071-5.129-4.255
			c-1.373-1.192-2.289-1.987-2.289-1.987c-0.069-0.06-0.076-0.164-0.016-0.232C70.417,483.741,70.515,483.732,70.584,483.784z"/>
	</g>
	<g>
		<path d="M340.282,459.356c0,0,0.598,0.094,1.643,0.258c0.522,0.082,1.157,0.182,1.886,0.297c0.363,0.057,0.751,0.118,1.159,0.182
			c0.405,0.089,0.831,0.182,1.275,0.279c0.889,0.198,1.852,0.412,2.87,0.64c1.023,0.212,2.068,0.556,3.168,0.846
			c1.095,0.309,2.235,0.597,3.359,1.004c1.132,0.383,2.281,0.771,3.431,1.16c1.122,0.464,2.243,0.929,3.347,1.386
			c1.115,0.431,2.161,0.972,3.189,1.461c1.016,0.511,2.033,0.935,2.934,1.461c0.91,0.508,1.772,0.987,2.566,1.43
			c0.396,0.225,0.782,0.426,1.136,0.644c0.347,0.228,0.676,0.443,0.984,0.647c0.617,0.405,1.156,0.759,1.6,1.05
			c0.886,0.582,1.392,0.915,1.392,0.915c0.076,0.05,0.097,0.152,0.047,0.228c-0.049,0.074-0.147,0.096-0.223,0.051l-0.01-0.006
			c0,0-0.516-0.313-1.419-0.859c-0.452-0.273-1-0.604-1.628-0.985c-0.623-0.39-1.338-0.807-2.141-1.225
			c-0.795-0.43-1.656-0.894-2.567-1.387c-0.9-0.512-1.918-0.92-2.933-1.414c-1.025-0.473-2.069-0.997-3.183-1.41
			c-1.101-0.44-2.219-0.886-3.337-1.333c-1.137-0.398-2.273-0.797-3.393-1.19c-1.11-0.419-2.238-0.72-3.322-1.041
			c-1.087-0.302-2.124-0.657-3.135-0.88c-1.006-0.238-1.958-0.464-2.837-0.672c-1.749-0.442-3.254-0.666-4.286-0.891
			c-1.038-0.203-1.631-0.32-1.631-0.32c-0.09-0.018-0.148-0.104-0.131-0.193C340.112,459.4,340.195,459.342,340.282,459.356z"/>
	</g>
	<g>
		<path style="fill:#642F93;" d="M263.989,86.852c0,0-6.888-44.769,71.035-52.988c69.157-7.292,78.778,39.553,72.154,49.051
			C400.554,92.412,305.932,150.908,263.989,86.852z"/>
		<path style="fill:#DC7912;" d="M262.533,44.573c1.591-19.115,17.751-34.787,40.791-23.024
			c23.039,11.764,44.633,31.749,60.96,30.51c16.33-1.238,34.015-2.002,38.055,12.05c4.041,14.05-20.434,48.712-78.408,40.362
			C265.958,96.12,260.77,65.742,262.533,44.573z"/>
		<path style="fill:#C45A02;" d="M296.457,48.882c6.026,21.606,39.84,30.304,64.875,28.172c19.942-1.564,25.292-21.526,13.21-25.576
			c-3.39,0.086-6.852,0.321-10.258,0.58c-12.867,0.978-29.008-11.227-46.546-22.201C305.392,27.301,294.49,34.306,296.457,48.882z"
			/>
		<path style="fill:#C45A02;" d="M402.339,64.108c-0.507-1.761-1.228-3.288-2.134-4.61c-13.358,25.403-43.371,42.368-70.938,38.314
			c-30.983-4.362-63.066-32.151-64.252-63.707c-1.328,3.25-2.178,6.794-2.482,10.468c-1.764,21.169,3.425,51.547,61.397,59.897
			C381.905,112.82,406.38,78.158,402.339,64.108z"/>
		<g>
			<path d="M269.531,34.69l0.537,5.264c0.184,1.753,0.399,3.502,0.643,5.246c0.238,1.745,0.517,3.482,0.837,5.211l0.541,2.58
				l0.648,2.552l0.777,2.514l0.914,2.465c0.339,0.808,0.707,1.603,1.06,2.405c0.377,0.79,0.805,1.556,1.204,2.334
				c0.865,1.522,1.785,3.015,2.819,4.431c0.484,0.731,1.044,1.407,1.589,2.093c0.538,0.692,1.089,1.374,1.688,2.017
				c1.143,1.332,2.383,2.575,3.614,3.827c0.597,0.601,1.304,1.174,1.949,1.762c0.67,0.568,1.389,1.041,2.08,1.568
				c0.721,0.486,1.48,0.926,2.217,1.392c0.773,0.408,1.544,0.823,2.326,1.215c1.587,0.743,3.203,1.424,4.855,2.027
				c3.297,1.222,6.685,2.222,9.998,3.484c1.646,0.653,3.29,1.343,4.831,2.244c1.577,0.839,2.964,1.996,4.26,3.222l-0.27-0.034
				c0.511-0.286,1.035-0.562,1.621-0.717c0.296-0.068,0.602-0.113,0.912-0.095c0.309,0.026,0.621,0.088,0.896,0.221
				c0.563,0.245,1.014,0.624,1.471,0.96c0.455,0.342,0.918,0.66,1.415,0.919c0.081,0.042,0.113,0.141,0.072,0.222
				c-0.041,0.081-0.141,0.112-0.221,0.073c-0.524-0.262-1.013-0.588-1.478-0.926c-0.467-0.334-0.915-0.691-1.41-0.894
				c-0.244-0.115-0.505-0.158-0.765-0.178c-0.263-0.012-0.526,0.031-0.788,0.095c-0.523,0.147-1.017,0.414-1.499,0.695
				c-0.087,0.05-0.192,0.036-0.263-0.028l-0.007-0.006c-1.282-1.174-2.645-2.275-4.203-3.079c-1.512-0.873-3.137-1.546-4.771-2.184
				c-3.289-1.234-6.683-2.216-10.011-3.429c-1.667-0.598-3.307-1.278-4.92-2.023c-0.797-0.394-1.583-0.812-2.371-1.223
				c-0.757-0.471-1.529-0.914-2.272-1.409c-0.715-0.537-1.474-1.038-2.151-1.607c-0.661-0.596-1.333-1.13-1.985-1.776l-1.87-1.891
				c-0.624-0.629-1.184-1.321-1.779-1.978c-0.601-0.653-1.155-1.347-1.696-2.05c-0.548-0.698-1.11-1.386-1.599-2.129
				c-1.039-1.441-1.965-2.961-2.833-4.51c-0.402-0.793-0.831-1.571-1.209-2.375c-0.352-0.815-0.722-1.624-1.06-2.445l-0.912-2.502
				l-0.772-2.547l-0.641-2.581l-0.531-2.603c-0.308-1.743-0.594-3.49-0.802-5.246c-0.217-1.754-0.404-3.511-0.562-5.27l-0.452-5.275
				c-0.008-0.091,0.06-0.171,0.15-0.179C269.443,34.534,269.522,34.601,269.531,34.69z"/>
		</g>
		<g>
			<path d="M341.123,94.571c0.825-0.6,1.589-1.239,2.381-1.886c0.398-0.317,0.807-0.63,1.236-0.923
				c0.432-0.29,0.893-0.559,1.4-0.747c0.503-0.198,1.055-0.294,1.6-0.288c0.274-0.018,0.539,0.048,0.81,0.07
				c0.266,0.042,0.52,0.124,0.78,0.187c0.256,0.075,0.496,0.181,0.745,0.271c0.252,0.085,0.474,0.22,0.712,0.328
				c0.48,0.215,0.908,0.502,1.357,0.761l-0.476,0.102c0.299-0.395,0.551-0.816,0.889-1.188c0.167-0.187,0.31-0.389,0.496-0.562
				c0.186-0.173,0.358-0.356,0.554-0.52c0.211-0.149,0.405-0.317,0.631-0.449c0.238-0.11,0.45-0.271,0.713-0.333
				c0.251-0.091,0.507-0.159,0.773-0.174c0.263-0.049,0.523-0.011,0.783-0.007c1.033,0.112,1.943,0.503,2.843,0.846
				c0.896,0.363,1.786,0.71,2.704,0.982c0.088,0.025,0.139,0.116,0.113,0.204c-0.023,0.084-0.111,0.134-0.195,0.115
				c-0.95-0.22-1.881-0.52-2.796-0.829c-0.91-0.306-1.817-0.653-2.717-0.714c-0.222,0.007-0.447-0.022-0.66,0.029
				c-0.219,0.02-0.427,0.08-0.631,0.156c-0.214,0.048-0.394,0.194-0.592,0.285c-0.19,0.113-0.361,0.267-0.544,0.397
				c-0.172,0.147-0.33,0.319-0.496,0.477c-0.167,0.157-0.302,0.354-0.455,0.528c-0.312,0.346-0.553,0.763-0.833,1.14
				c-0.111,0.15-0.317,0.188-0.476,0.102c-0.436-0.237-0.846-0.531-1.294-0.734c-0.222-0.103-0.436-0.237-0.665-0.316
				c-0.228-0.084-0.452-0.188-0.682-0.258c-0.232-0.056-0.463-0.135-0.697-0.175c-0.234-0.019-0.469-0.085-0.703-0.069
				c-0.469-0.01-0.934,0.066-1.382,0.22c-0.451,0.148-0.882,0.379-1.301,0.639c-0.418,0.265-0.826,0.556-1.233,0.857
				c-0.817,0.59-1.652,1.203-2.505,1.746c-0.075,0.051-0.178,0.031-0.23-0.044C341.034,94.725,341.055,94.624,341.123,94.571z"/>
		</g>
		<g>
			<path d="M386.251,79.755c0,0,0.064-0.202,0.174-0.554c0.128-0.348,0.246-0.859,0.506-1.447c0.267-0.583,0.521-1.3,0.938-1.986
				c0.202-0.346,0.379-0.723,0.619-1.07c0.235-0.35,0.474-0.706,0.713-1.062c0.249-0.349,0.543-0.665,0.808-0.993
				c0.261-0.333,0.546-0.635,0.838-0.913c0.553-0.587,1.145-1.051,1.654-1.443c0.487-0.421,0.985-0.646,1.291-0.858
				c0.32-0.191,0.503-0.3,0.503-0.3c0.078-0.046,0.179-0.021,0.226,0.057c0.043,0.072,0.024,0.164-0.04,0.214l-0.014,0.011
				c0,0-0.165,0.129-0.454,0.353c-0.282,0.232-0.726,0.506-1.175,0.94c-0.232,0.207-0.483,0.431-0.749,0.668
				c-0.259,0.244-0.499,0.536-0.773,0.808c-0.277,0.272-0.546,0.569-0.791,0.896c-0.249,0.322-0.526,0.631-0.76,0.972
				c-0.237,0.34-0.475,0.68-0.707,1.014c-0.239,0.331-0.417,0.694-0.621,1.025c-0.413,0.663-0.718,1.316-1.005,1.87
				c-0.282,0.555-0.476,1.055-0.631,1.387c-0.152,0.336-0.24,0.528-0.24,0.528c-0.038,0.083-0.136,0.12-0.219,0.082
				C386.264,79.92,386.227,79.834,386.251,79.755z"/>
		</g>
		<path style="fill:#F964BA;" d="M408.11,59.672c-2.369-2.74,23.142-43.433,32.882-32.364
			C450.734,38.377,410.477,62.41,408.11,59.672z"/>
		<path style="fill:#F964BA;" d="M414.979,70.11c-0.531-2.68,31.381-19.846,33.642-8.951
			C450.875,72.052,415.512,72.789,414.979,70.11z"/>
		<path style="fill:#C45A02;" d="M194.532,89.789l-19.005,36.064c0,0,1.449,10.46,14.045,15.575
			c12.595,5.114,36.287-5.532,41.421-22.413C236.125,102.136,194.532,89.789,194.532,89.789z"/>
		<path style="fill:#FFC0E1;" d="M170.963,122.271c0,0,10.376-7.446,10.266-7.237c-0.11,0.209,17.472,24.669,17.591,27.947
			c0.121,3.278-7.196,7.922-7.196,7.922L170.963,122.271z"/>
		<path style="fill:#0088E0;" d="M130.586,319.657c0,0-20.654-80.864-15.951-90.207c4.703-9.342,85.788-69.851,85.842-71.675
			c0.053-1.826-26.391-43.154-31.44-43.597c-5.049-0.441-91.147,49.941-106.408,105.911
			c-9.803,35.957,43.153,193.908,43.153,193.908L130.586,319.657z"/>
		<path style="fill:#68C5F0;" d="M114.635,229.45c0.959-1.906,5.1-5.942,11.081-11.175c-11.736-15.11-22.769-30.852-33.948-46.237
			c-13.396,14.668-24.518,31.102-29.139,48.051c-3.911,14.347,2.172,48.121,10.894,83.53c15.526-8.98,31.571-17.276,47.177-26.254
			C116.187,256.188,112.309,234.071,114.635,229.45z"/>
		<path style="fill:#68C5F0;" d="M200.477,157.775c0.053-1.826-26.391-43.154-31.44-43.597c-1.49-0.13-10.04,4.169-21.742,11.727
			c-2.679,25.324-3.304,50.973-2.774,76.698C169.324,182.548,200.444,158.904,200.477,157.775z"/>
		<path style="fill:#552984;" d="M270.013,102.934c-9.341,1.241-70.641,16.395-75.645,20.574
			c-5.004,4.18-35.688,14.832-37.185-3.253c-1.496-18.084,28.827-12.479,33.564-14.054c4.739-1.574,76.621-18.725,76.621-18.725
			L270.013,102.934z"/>
		<g>
			<path d="M110.675,221.844c0,0-0.708-0.809-1.948-2.224c-0.599-0.732-1.421-1.515-2.341-2.436
				c-0.889-0.953-2.047-1.864-3.245-2.927c-1.272-0.97-2.662-2.01-4.269-2.884c-0.385-0.25-0.808-0.437-1.236-0.624
				c-0.426-0.192-0.857-0.387-1.293-0.584c-0.447-0.165-0.913-0.29-1.375-0.44l-0.699-0.218l-0.726-0.126
				c-1.922-0.388-4.036-0.344-5.932,0.446c-1.895,0.773-3.472,2.298-4.363,4.161c-0.915,1.855-1.154,4.027-0.726,6.028
				c0.416,2.011,1.499,3.819,2.892,5.196c1.401,1.368,3.031,2.444,4.734,3.088c0.821,0.399,1.687,0.609,2.509,0.855
				c0.813,0.283,1.651,0.352,2.432,0.514c0.781,0.173,1.548,0.209,2.275,0.272c0.727,0.046,1.414,0.163,2.066,0.131
				c1.302-0.026,2.441,0.046,3.374-0.059c1.868-0.153,2.936-0.24,2.936-0.24l0.012-0.001c0.091-0.007,0.17,0.06,0.178,0.151
				c0.007,0.089-0.059,0.168-0.147,0.177c0,0-1.073,0.11-2.952,0.303c-0.938,0.126-2.091,0.077-3.408,0.13
				c-0.66,0.044-1.359-0.059-2.099-0.09c-0.74-0.046-1.519-0.087-2.318-0.253c-0.798-0.16-1.651-0.225-2.489-0.508
				c-0.845-0.246-1.734-0.455-2.586-0.86c-1.758-0.652-3.466-1.754-4.947-3.182c-1.473-1.436-2.639-3.344-3.099-5.487
				c-0.472-2.132-0.237-4.462,0.736-6.471c0.966-2.011,2.699-3.647,4.743-4.463c2.047-0.835,4.29-0.857,6.292-0.438l0.757,0.137
				l0.724,0.23c0.478,0.158,0.961,0.293,1.421,0.467c0.447,0.206,0.889,0.409,1.326,0.609c0.439,0.196,0.872,0.393,1.263,0.65
				c1.639,0.908,3.044,1.976,4.329,2.97c1.212,1.079,2.363,2.025,3.243,3.014c0.913,0.952,1.728,1.765,2.307,2.505
				c1.209,1.441,1.9,2.265,1.9,2.265c0.059,0.069,0.05,0.174-0.02,0.232C110.836,221.919,110.734,221.911,110.675,221.844z"/>
		</g>
		<g>
			<path d="M96.474,343.982c0,0,0.385,2.889,0.963,7.221c0.135,1.085,0.282,2.259,0.437,3.501c0.138,1.246,0.434,2.531,0.658,3.877
				c0.485,2.682,1.002,5.543,1.519,8.404c1.107,5.72,2.24,11.432,3.03,15.734c0.77,4.304,1.284,7.173,1.284,7.173
				c0.016,0.09-0.044,0.176-0.133,0.191c-0.088,0.017-0.174-0.046-0.192-0.133c0,0-0.591-2.853-1.477-7.131
				c-0.834-4.286-2.029-9.993-3.196-15.702c-0.49-2.879-0.98-5.757-1.44-8.454c-0.21-1.352-0.493-2.648-0.617-3.894
				c-0.142-1.244-0.276-2.42-0.399-3.506c-0.459-4.346-0.765-7.243-0.765-7.243c-0.009-0.091,0.056-0.172,0.147-0.182
				C96.381,343.83,96.462,343.894,96.474,343.982z"/>
		</g>
		<g>
			<path d="M165.21,119.785c0,0,1.662,1.896,4.155,4.74c0.616,0.717,1.284,1.493,1.99,2.315c0.723,0.806,1.364,1.763,2.094,2.695
				c1.428,1.892,2.952,3.91,4.476,5.928c1.368,2.124,2.736,4.248,4.019,6.239c0.624,1.006,1.299,1.933,1.809,2.893
				c0.53,0.947,1.031,1.843,1.493,2.669c1.816,3.322,3.027,5.537,3.027,5.537c0.044,0.08,0.014,0.18-0.065,0.224
				c-0.079,0.043-0.176,0.016-0.221-0.061l-0.005-0.009c0,0-1.277-2.171-3.192-5.427c-0.471-0.818-0.98-1.704-1.52-2.642
				c-0.52-0.949-1.205-1.866-1.838-2.86c-1.301-1.967-2.689-4.065-4.077-6.164c-1.491-2.023-2.982-4.047-4.379-5.944
				c-0.715-0.938-1.337-1.894-2.052-2.711c-0.696-0.83-1.354-1.615-1.961-2.34c-2.402-2.921-4.003-4.869-4.003-4.869
				c-0.058-0.07-0.048-0.175,0.023-0.232C165.05,119.71,165.151,119.718,165.21,119.785z"/>
		</g>
		<path style="fill:#78459F;" d="M263.811,80.377c2.667-2.079,18.21,31.9,75.119,24.665c56.911-7.234,67.496-34.663,69.575-32.695
			c2.082,1.969,0.107,19.134-1.858,21.213c-1.967,2.08-15.109,25.202-68.415,30.627c-53.304,5.426-69.72-20.051-70.667-22.046
			C266.617,100.145,261.119,82.474,263.811,80.377z"/>
		<path style="fill:#DC7912;" d="M194.532,89.789c2.183-4.068,45.136-18.81,51.305-15.02c6.169,3.791,7.73,37.06,3.739,40.873
			c-3.991,3.812-41.771,17.577-46.926,11.436C197.497,120.937,191.62,95.224,194.532,89.789z"/>
		<g>
			<path d="M206.977,87.291c0,0,0.205,0.493,0.564,1.357c0.188,0.427,0.396,0.956,0.601,1.581c0.205,0.622,0.484,1.316,0.686,2.093
				c0.214,0.775,0.481,1.607,0.697,2.502c0.215,0.896,0.478,1.833,0.672,2.819c0.424,1.964,0.835,4.067,1.181,6.181
				c0.683,4.228,1.191,8.479,1.474,11.676c0.285,3.197,0.39,5.336,0.39,5.336c0.004,0.091-0.066,0.168-0.157,0.173
				c-0.088,0.004-0.164-0.063-0.173-0.149c0,0-0.209-2.124-0.594-5.303c-0.183-1.59-0.428-3.442-0.695-5.424
				c-0.27-1.981-0.57-4.094-0.934-6.195c-0.334-2.106-0.722-4.202-1.129-6.158c-0.19-0.98-0.428-1.915-0.618-2.811
				c-0.193-0.895-0.438-1.723-0.632-2.498c-0.188-0.778-0.432-1.46-0.605-2.084c-0.174-0.622-0.358-1.158-0.528-1.595
				c-0.322-0.878-0.506-1.379-0.506-1.379c-0.032-0.085,0.012-0.181,0.097-0.212C206.85,87.17,206.942,87.211,206.977,87.291z"/>
		</g>
		<g>
			<path d="M222.466,83.28c0,0,0.366,2.169,0.867,5.43c0.121,0.816,0.252,1.7,0.391,2.634c0.099,0.941,0.204,1.934,0.312,2.961
				c0.212,2.055,0.438,4.248,0.664,6.44c0.35,4.383,0.636,8.778,0.958,12.056c0.131,1.643,0.24,3.012,0.317,3.971
				c0.073,0.959,0.115,1.507,0.115,1.507v0.006c0.007,0.091-0.061,0.17-0.151,0.177c-0.089,0.007-0.166-0.058-0.177-0.146
				c0,0-0.064-0.546-0.177-1.502c-0.109-0.957-0.266-2.324-0.453-3.964c-0.37-3.285-0.716-7.666-1.127-12.046
				c-0.196-2.187-0.392-4.373-0.575-6.422c-0.093-1.025-0.183-2.016-0.269-2.955c-0.125-0.937-0.243-1.822-0.352-2.64
				c-0.421-3.272-0.669-5.459-0.669-5.459c-0.012-0.09,0.053-0.173,0.143-0.184C222.37,83.133,222.45,83.195,222.466,83.28z"/>
		</g>
		<g>
			<path d="M236.921,78.612c0,0,0.266,2.253,0.613,5.639c0.083,0.847,0.173,1.764,0.268,2.734c0.112,0.968,0.099,2.003,0.156,3.067
				c0.082,2.131,0.17,4.405,0.257,6.679c-0.043,2.271-0.087,4.542-0.127,6.671c-0.029,1.064-0.021,2.094-0.079,3.068
				c-0.048,0.974-0.094,1.896-0.136,2.746c-0.102,1.7-0.186,3.116-0.244,4.107c-0.063,0.991-0.098,1.557-0.098,1.557
				c-0.006,0.091-0.084,0.16-0.175,0.154c-0.089-0.005-0.157-0.084-0.155-0.172c0,0,0.014-0.567,0.036-1.559
				c0.026-0.992,0.063-2.408,0.107-4.108c0.031-0.849,0.064-1.77,0.1-2.743c0.044-0.973,0.021-2.001,0.036-3.063
				c0.012-2.124,0.024-4.389,0.037-6.654c-0.058-2.261-0.114-4.522-0.168-6.642c-0.043-1.06-0.015-2.086-0.113-3.057
				c-0.082-0.971-0.159-1.89-0.23-2.737c-0.269-3.392-0.414-5.657-0.414-5.657c-0.007-0.091,0.063-0.169,0.153-0.176
				C236.834,78.461,236.911,78.526,236.921,78.612z"/>
		</g>
		<path style="fill:#C45A02;" d="M236.832,84.202c3.063-5.643,21.572,5.239,23.142,9.208c1.567,3.968-2.755,18.607-7.934,18.548
			C246.863,111.899,225.411,105.234,236.832,84.202z"/>
		<g>
			<path d="M326.517,62.493c0,0,0.378-0.172,1.039-0.472c0.665-0.294,1.6-0.745,2.747-1.23c2.288-0.979,5.338-2.283,8.389-3.588
				c1.51-0.677,3.035-1.326,4.423-2.017c0.692-0.347,1.388-0.635,2.012-0.974c0.632-0.326,1.228-0.635,1.779-0.92
				c1.109-0.557,1.987-1.103,2.625-1.448c0.631-0.356,0.991-0.56,0.991-0.56l0.008-0.004c0.079-0.045,0.18-0.017,0.225,0.063
				c0.043,0.077,0.019,0.173-0.055,0.22c0,0-0.351,0.224-0.965,0.615c-0.624,0.374-1.469,0.993-2.57,1.584
				c-0.546,0.304-1.138,0.632-1.763,0.98c-0.621,0.359-1.306,0.677-2.003,1.027c-1.392,0.71-2.916,1.378-4.428,2.073
				c-3.059,1.308-6.142,2.543-8.459,3.445c-2.32,0.905-3.866,1.509-3.866,1.509c-0.085,0.033-0.181-0.008-0.214-0.093
				C326.4,62.622,326.438,62.529,326.517,62.493z"/>
		</g>
		<g>
			<path d="M328.189,51.828c0,0,0.478-0.197,1.206-0.448c0.365-0.119,0.783-0.283,1.265-0.379c0.477-0.109,0.983-0.226,1.491-0.343
				c0.514-0.068,1.027-0.136,1.509-0.199c0.48-0.075,0.936-0.073,1.323-0.089c0.777-0.02,1.293-0.005,1.293-0.005
				c0.092,0.002,0.163,0.079,0.16,0.17c-0.002,0.079-0.059,0.143-0.133,0.157l-0.01,0.002c0,0-0.506,0.101-1.262,0.209
				c-0.758,0.086-1.755,0.29-2.757,0.442c-0.987,0.209-1.98,0.365-2.734,0.553c-0.752,0.166-1.262,0.246-1.262,0.246
				c-0.091,0.015-0.176-0.047-0.19-0.138C328.076,51.93,328.12,51.856,328.189,51.828z"/>
		</g>
		<g>
			<path d="M268.283,101.521c0,0-0.237-1.053-0.563-2.638c-0.153-0.794-0.355-1.716-0.497-2.722
				c-0.153-1.002-0.317-2.072-0.482-3.141c-0.109-1.076-0.219-2.152-0.322-3.162c-0.119-1.007-0.138-1.956-0.173-2.766
				c-0.053-1.623-0.069-2.703-0.069-2.703c-0.001-0.091,0.071-0.166,0.163-0.167c0.085-0.002,0.156,0.063,0.166,0.146l0.001,0.009
				c0,0,0.122,1.072,0.274,2.678c0.111,1.608,0.42,3.739,0.653,5.876c0.307,2.127,0.566,4.26,0.816,5.861
				c0.228,1.602,0.357,2.674,0.357,2.674c0.011,0.09-0.054,0.173-0.145,0.184C268.38,101.66,268.303,101.603,268.283,101.521z"/>
		</g>
		<g>
			<path d="M406.667,79.388c0,0-0.139,1.126-0.347,2.817c-0.119,0.842-0.235,1.829-0.431,2.878c-0.185,1.05-0.382,2.171-0.578,3.292
				c-0.275,1.107-0.551,2.214-0.81,3.252c-0.138,0.516-0.234,1.025-0.415,1.483c-0.169,0.461-0.328,0.897-0.476,1.3
				c-0.601,1.605-1.017,2.663-1.017,2.663c-0.034,0.085-0.129,0.126-0.214,0.093c-0.08-0.031-0.122-0.119-0.098-0.2l0.005-0.017
				c0,0,0.326-1.083,0.814-2.706c0.127-0.402,0.266-0.839,0.411-1.3c0.159-0.456,0.225-0.971,0.36-1.481
				c0.24-1.03,0.497-2.129,0.753-3.227c0.423-2.224,0.845-4.449,1.161-6.117c0.332-1.67,0.553-2.784,0.553-2.784
				c0.018-0.089,0.104-0.147,0.194-0.129C406.62,79.221,406.677,79.303,406.667,79.388z"/>
		</g>
		<g>
			<path d="M345.088,34.208c0,0,0.849,0.022,2.333,0.061c0.743,0.019,1.645,0.042,2.679,0.069c1.034,0.028,2.201,0.03,3.473,0.182
				c1.271,0.119,2.649,0.248,4.107,0.384c1.465,0.09,2.979,0.403,4.557,0.644c1.57,0.284,3.22,0.446,4.839,0.898
				c1.631,0.395,3.287,0.796,4.943,1.197c1.615,0.547,3.229,1.094,4.819,1.632c1.611,0.479,3.087,1.238,4.563,1.847
				c1.456,0.653,2.907,1.196,4.175,1.935c1.291,0.689,2.512,1.34,3.638,1.942c1.149,0.564,2.11,1.236,2.983,1.796
				c0.87,0.563,1.629,1.055,2.254,1.459c1.248,0.809,1.962,1.271,1.962,1.271c0.076,0.05,0.099,0.152,0.049,0.228
				c-0.049,0.075-0.148,0.098-0.225,0.051l-0.01-0.006c0,0-0.724-0.442-1.989-1.215c-0.632-0.386-1.4-0.855-2.281-1.394
				c-0.883-0.533-1.857-1.172-3-1.729c-1.125-0.587-2.344-1.224-3.633-1.896c-1.265-0.724-2.711-1.248-4.163-1.884
				c-1.471-0.591-2.94-1.331-4.544-1.792c-1.58-0.519-3.186-1.047-4.792-1.575c-1.64-0.411-3.279-0.822-4.894-1.227
				c-1.602-0.463-3.238-0.639-4.796-0.936c-1.564-0.253-3.068-0.58-4.519-0.681c-1.446-0.149-2.814-0.29-4.075-0.419
				c-1.259-0.156-2.428-0.188-3.46-0.247c-1.033-0.054-1.934-0.102-2.676-0.141c-1.483-0.079-2.331-0.123-2.331-0.123
				c-0.091-0.005-0.161-0.083-0.156-0.174C344.923,34.275,344.999,34.207,345.088,34.208z"/>
		</g>
	</g>
</g>
</svg>
